<svg xmlns="http://www.w3.org/2000/svg" width="280" height="480" viewBox="0 0 280 480" role="img" aria-labelledby="title description">
<title id="title">The Star — Ominity Tarot</title><desc id="description">Original etched tarot plate for The Star.</desc>
<style>
.ink{fill:none;stroke:#232b2d;stroke-width:2.3;stroke-linecap:round;stroke-linejoin:round}
.fine{fill:none;stroke:#232b2d;stroke-opacity:.53;stroke-width:1.15;stroke-linecap:round;stroke-linejoin:round}
.gold{fill:none;stroke:#997643;stroke-width:2;stroke-linecap:round;stroke-linejoin:round}
.faint{fill:none;stroke:#997643;stroke-opacity:.66;stroke-width:1.25}
.inkfill{fill:#232b2d;stroke:#232b2d;stroke-width:1}
.distant{fill:#997643;fill-opacity:.13;stroke:#997643;stroke-opacity:.58;stroke-width:1.5;stroke-linejoin:round}
.terrain{fill:none;stroke:#997643;stroke-opacity:.76;stroke-width:1.9;stroke-linecap:round;stroke-linejoin:round}
.halo{fill:#997643;fill-opacity:.10;stroke:#997643;stroke-width:1.25}
.cloud{fill:none;stroke:#232b2d;stroke-opacity:.32;stroke-width:1.3;stroke-linecap:round}
.wind{fill:none;stroke:#997643;stroke-opacity:.60;stroke-width:1.1;stroke-linecap:round}
.hands{fill:none;stroke:#232b2d;stroke-width:2.4;stroke-linecap:round;stroke-linejoin:round}
.arch{fill:none;stroke:#997643;stroke-width:1.8;stroke-linecap:round;stroke-linejoin:round}
.tension{fill:none;stroke:#997643;stroke-opacity:.55;stroke-width:1.5;stroke-linecap:round}
.bridge{fill:none;stroke:#997643;stroke-width:2.3;stroke-linecap:round}
.ridge{fill:none;stroke:#232b2d;stroke-opacity:.46;stroke-width:1.6;stroke-linejoin:round}
.motion{fill:none;stroke:#997643;stroke-opacity:.54;stroke-width:2;stroke-linecap:round}
.beast{fill:#997643;fill-opacity:.23;stroke:#232b2d;stroke-width:1.8;stroke-linejoin:round}
.regalia{fill:#997643;fill-opacity:.25;stroke:#997643;stroke-width:1.6;stroke-linejoin:round}
.petal{fill:#f2ebd9;stroke:#997643;stroke-width:1.5}
.wash{fill:#997643;fill-opacity:.11;stroke:#232b2d;stroke-width:1.8;stroke-linejoin:round}
.column{fill:#f2ebd9;stroke:#232b2d;stroke-width:2.1}
.sun{fill:#997643;fill-opacity:.2;stroke:#997643;stroke-width:2}
.paperfill{fill:#f2ebd9;stroke:#232b2d;stroke-width:1.8}
.lantern{fill:#997643;fill-opacity:.35;stroke:#232b2d;stroke-width:2}
.vine{fill:none;stroke:#997643;stroke-width:2;stroke-linecap:round;stroke-linejoin:round}
.water{fill:none;stroke:#997643;stroke-width:2;stroke-linecap:round}
.chain{fill:none;stroke:#997643;stroke-width:3;stroke-dasharray:4 4}
.lightning{fill:none;stroke:#997643;stroke-width:7;stroke-linecap:square;stroke-linejoin:miter}
.ghost{fill:none;stroke:#997643;stroke-opacity:.52;stroke-width:1.05;stroke-linecap:round;stroke-linejoin:round}
.landscape{fill:none;stroke:#997643;stroke-opacity:.58;stroke-width:1.5;stroke-linecap:round}
.hatch{fill:none;stroke:#232b2d;stroke-opacity:.42;stroke-width:1;stroke-linecap:round}
</style>
<rect width="280" height="480" fill="#f2ebd9"/>
<rect x="8" y="8" width="264" height="464" fill="none" stroke="#997643" stroke-width="1.8"/>
<rect x="14" y="14" width="252" height="452" fill="none" stroke="#232b2d" stroke-width=".75" opacity=".72"/>
<path d="M23 77H257M23 391H257M25 454H255" stroke="#997643" stroke-width="1"/>
<path d="M20 20L36 20M20 20L20 36M260 20L244 20M260 20L260 36M20 460L36 460M20 460L20 444M260 460L244 460M260 460L260 444" stroke="#232b2d" stroke-width="1.4"/>
<text class="number" x="140" y="42" font-family="Noto Serif" font-size="20" font-weight="400" fill="#997643" text-anchor="middle">XVII</text>
<text class="small" x="140" y="64" font-family="Noto Sans" font-size="8" font-weight="600" letter-spacing="1.7" fill="#997643" text-anchor="middle">MAJOR ARCANA</text>
<g clip-path="url(#window)"><path class="ghost" d="M32 374V148Q140 94 248 148V374" /><path class="ghost" d="M38 374V154Q140 108 242 154V374" /><path class="ghost" d="M31 375H249" /><path class="gold" d="M140 110L140.9 113.1L144 114L140.9 114.9L140 118L139.1 114.9L136 114L139.1 113.1Z" /><path class="ghost" d="M34 159H43M237 159H246M31 326H39M241 326H249" /><path class="landscape" d="M39 338Q78 306 117 328Q167 294 241 339" /><path class="ghost" d="M39 348Q79 317 117 338Q166 306 241 349" /><path class="ghost" d="M55 208Q140 149 225 208" /><path class="faint" d="M124 181.6L124.6 183.4L126.4 184L124.6 184.6L124 186.4L123.4 184.6L121.6 184L123.4 183.4Z" /><path class="faint" d="M49 115.6L49.6 117.4L51.4 118L49.6 118.6L49 120.4L48.4 118.6L46.6 118L48.4 117.4Z" /><path class="faint" d="M49 137.6L49.6 139.4L51.4 140L49.6 140.6L49 142.4L48.4 140.6L46.6 140L48.4 139.4Z" /><path class="faint" d="M174 159.6L174.6 161.4L176.4 162L174.6 162.6L174 164.4L173.4 162.6L171.6 162L173.4 161.4Z" /><path class="gold" d="M140 139L143.2 149.8L154 153L143.2 156.2L140 167L136.8 156.2L126 153L136.8 149.8Z" /><path class="gold" d="M68 175L69.4 179.6L74 181L69.4 182.4L68 187L66.6 182.4L62 181L66.6 179.6Z" /><path class="gold" d="M100 194L101.4 198.6L106 200L101.4 201.4L100 206L98.6 201.4L94 200L98.6 198.6Z" /><path class="gold" d="M182 194L183.4 198.6L188 200L183.4 201.4L182 206L180.6 201.4L176 200L180.6 198.6Z" /><path class="gold" d="M212 175L213.4 179.6L218 181L213.4 182.4L212 187L210.6 182.4L206 181L210.6 179.6Z" /><path class="gold" d="M80 231L81.2 234.8L85 236L81.2 237.2L80 241L78.8 237.2L75 236L78.8 234.8Z" /><path class="gold" d="M200 231L201.2 234.8L205 236L201.2 237.2L200 241L198.8 237.2L195 236L198.8 234.8Z" /><path class="gold" d="M140 205L141.4 209.6L146 211L141.4 212.4L140 217L138.6 212.4L134 211L138.6 209.6Z" /><g transform="translate(139 319) scale(1.2 1.2)"><path class="paperfill" d="M-9 -69L-11 -82Q-9 -92 0 -93Q10 -91 12 -81L8 -68L5 -64H-5Z" /><path class="inkfill" d="M-10 -79Q-13 -93 -1 -96Q10 -97 13 -83Q6 -88 0 -83Q-6 -78 -10 -79Z" /><path class="fine" d="M3 -76L8 -75M-3 -66Q2 -63 6 -67" /><path class="ink" d="M-5 -64L-6 -58M5 -64L6 -58" /><path class="wash" d="M-8 -61Q0 -66 8 -61L18 -51L21 -9Q0 4 -21 -9L-18 -51Z" /><path class="paperfill" d="M-11 -55L-22 -23L-27 -18L-23 -14L-18 -17L-6 -47M11 -55L21 -24L25 -20L22 -15L17 -19L6 -47" /><path class="fine" d="M-8 -47Q0 -39 8 -47M-15 -14Q0 -20 15 -14M-10 -34L-13 -3M9 -35L12 -3M0 -42V-5" /><path class="gold" d="M-18 -8Q0 -2 18 -8M-15 -52Q0 -46 15 -52" /><path class="ink" d="M-11 -2L-11 2M11 -2L11 2" /></g><g transform="translate(93 306) scale(0.63)"><path class="ink" d="M-14 -18 Q-14 4 0 8 Q14 4 14 -18Z" /><path class="gold" d="M-12 -13 Q0 -17 12 -13" /><path class="ink" d="M0 8L0 23" /><path class="ink" d="M-10 23L10 23" /></g><g transform="translate(186 306) scale(0.63)"><path class="ink" d="M-14 -18 Q-14 4 0 8 Q14 4 14 -18Z" /><path class="gold" d="M-12 -13 Q0 -17 12 -13" /><path class="ink" d="M0 8L0 23" /><path class="ink" d="M-10 23L10 23" /></g><path class="fine" d="M42 338 Q69 332 96 338 T150 338 T204 338 T238 338" /><path class="fine" d="M42 349 Q69 343 96 349 T150 349 T204 349 T238 349" /><path class="fine" d="M42 360 Q69 354 96 360 T150 360 T204 360 T238 360" /><path class="fine" d="M42 371 Q69 365 96 371 T150 371 T204 371 T238 371" /><path class="gold" d="M68 169V191M57 180H79" /><path class="gold" d="M212 169V191M201 180H223" /></g>
<defs><clipPath id="window"><rect x="24" y="79" width="232" height="309"/></clipPath></defs>
<path d="M42 382H79M201 382H238" stroke="#997643" stroke-width=".9"/>
<circle cx="140" cy="382" r="4" fill="none" stroke="#997643" stroke-width="1.3"/>
<text class="title" x="140" y="423" font-family="Noto Serif" font-size="22" font-weight="600" fill="#232b2d" text-anchor="middle">The Star</text>
<text class="label" x="140" y="447" font-family="Noto Sans" font-size="9" font-weight="600" letter-spacing="1.8" fill="#232b2d" text-anchor="middle">HOPE</text>
</svg>
