<svg xmlns="http://www.w3.org/2000/svg" width="280" height="480" viewBox="0 0 280 480" role="img" aria-labelledby="title description">
<title id="title">The Empress — Ominity Tarot</title><desc id="description">Original symbolic illustration for The Empress.</desc>
<rect width="280" height="480" fill="#f2ebd9"/>
<rect x="8" y="8" width="264" height="464" fill="none" stroke="#997643" stroke-width="1.8"/>
<rect x="14" y="14" width="252" height="452" fill="none" stroke="#232b2d" stroke-width=".75" opacity=".72"/>
<path d="M23 66H257M23 416H257" stroke="#997643" stroke-width="1"/>
<path d="M20 20L36 20M20 20L20 36M260 20L244 20M260 20L260 36M20 460L36 460M20 460L20 444M260 460L244 460M260 460L260 444" stroke="#232b2d" stroke-width="1.4"/>
<text class="number" x="140" y="38" font-family="Noto Serif" font-size="19" font-weight="400" fill="#997643" text-anchor="middle">III</text>
<text class="small" x="140" y="56" font-family="Noto Sans" font-size="8" font-weight="600" letter-spacing="1.7" fill="#997643" text-anchor="middle">MAJOR ARCANA</text>
<defs><clipPath id="window"><rect x="24" y="68" width="232" height="346"/></clipPath></defs>
<g clip-path="url(#window)"><rect x="24" y="68" width="232" height="346" fill="#ede6d5"/><defs><linearGradient id="maj-sky-3" x1="0" y1="0" x2="0" y2="1"><stop offset="0" stop-color="#d5ccb3"/><stop offset="1" stop-color="#ebe5d2"/></linearGradient></defs><rect x="24" y="68" width="232" height="346" fill="url(#maj-sky-3)" stroke="none" stroke-width="1.5" /><circle cx="177" cy="164" r="45" fill="none" stroke="#997643" stroke-width="0.6" opacity=".55"/><circle cx="177" cy="164" r="53" fill="none" stroke="#997643" stroke-width="0.6" opacity=".55"/><path d="M237.0 164.0L247.0 164.0" fill="none" stroke="#997643" stroke-width="0.9" stroke-linecap="round" stroke-linejoin="round" /><path d="M229.0 194.0L237.6 199.0" fill="none" stroke="#997643" stroke-width="0.9" stroke-linecap="round" stroke-linejoin="round" /><path d="M207.0 216.0L212.0 224.6" fill="none" stroke="#997643" stroke-width="0.9" stroke-linecap="round" stroke-linejoin="round" /><path d="M177.0 224.0L177.0 234.0" fill="none" stroke="#997643" stroke-width="0.9" stroke-linecap="round" stroke-linejoin="round" /><path d="M147.0 216.0L142.0 224.6" fill="none" stroke="#997643" stroke-width="0.9" stroke-linecap="round" stroke-linejoin="round" /><path d="M125.0 194.0L116.4 199.0" fill="none" stroke="#997643" stroke-width="0.9" stroke-linecap="round" stroke-linejoin="round" /><path d="M117.0 164.0L107.0 164.0" fill="none" stroke="#997643" stroke-width="0.9" stroke-linecap="round" stroke-linejoin="round" /><path d="M125.0 134.0L116.4 129.0" fill="none" stroke="#997643" stroke-width="0.9" stroke-linecap="round" stroke-linejoin="round" /><path d="M147.0 112.0L142.0 103.4" fill="none" stroke="#997643" stroke-width="0.9" stroke-linecap="round" stroke-linejoin="round" /><path d="M177.0 104.0L177.0 94.0" fill="none" stroke="#997643" stroke-width="0.9" stroke-linecap="round" stroke-linejoin="round" /><path d="M207.0 112.0L212.0 103.4" fill="none" stroke="#997643" stroke-width="0.9" stroke-linecap="round" stroke-linejoin="round" /><path d="M229.0 134.0L237.6 129.0" fill="none" stroke="#997643" stroke-width="0.9" stroke-linecap="round" stroke-linejoin="round" /><circle cx="177" cy="164" r="36" fill="#cebc9d" stroke="#997643" stroke-width="1.8" /><path d="M24 305Q80 288 140 305T256 305V414H24Z" fill="#afaf9d" stroke="none" stroke-width="1.5" stroke-linecap="round" stroke-linejoin="round" /><path d="M24 332Q91 300 140 328T256 325V414H24Z" fill="#8d8e82" stroke="none" stroke-width="1.5" stroke-linecap="round" stroke-linejoin="round" /><path d="M24 354Q98 319 145 352T256 347" fill="none" stroke="#4c514f" stroke-width="1.2" stroke-linecap="round" stroke-linejoin="round" /><path d="M256 277Q192 293 165 317Q138 339 45 371" fill="none" stroke="#997643" stroke-width="4" stroke-linecap="round" stroke-linejoin="round" /><g transform="translate(58 346) scale(0.7)"><path d="M0 0Q-5 -47 -1 -104M-1 -76Q-21 -105 -32 -119M-1 -90Q14 -123 29 -137M-4 -50Q-22 -65 -43 -65" fill="none" stroke="#444a49" stroke-width="4.2" stroke-linecap="round" stroke-linejoin="round" /><path d="M-29 -116L-42 -128M23 -132L34 -147M-31 -66L-44 -78" fill="none" stroke="#8d8e82" stroke-width="1.4" stroke-linecap="round" stroke-linejoin="round" /><path d="M-32 -120q-13 -8 -11 -19q13 0 17 13Z" fill="#8d8e82" stroke="#997643" stroke-width="0.6" stroke-linecap="round" stroke-linejoin="round" /><path d="M-15 -107q-13 -8 -11 -19q13 0 17 13Z" fill="#8d8e82" stroke="#997643" stroke-width="0.6" stroke-linecap="round" stroke-linejoin="round" /><path d="M22 -135q-13 -8 -11 -19q13 0 17 13Z" fill="#8d8e82" stroke="#997643" stroke-width="0.6" stroke-linecap="round" stroke-linejoin="round" /><path d="M33 -143q-13 -8 -11 -19q13 0 17 13Z" fill="#8d8e82" stroke="#997643" stroke-width="0.6" stroke-linecap="round" stroke-linejoin="round" /><path d="M-42 -70q-13 -8 -11 -19q13 0 17 13Z" fill="#8d8e82" stroke="#997643" stroke-width="0.6" stroke-linecap="round" stroke-linejoin="round" /></g><g transform="translate(237 347) scale(0.6)"><path d="M0 0Q-5 -47 -1 -104M-1 -76Q-21 -105 -32 -119M-1 -90Q14 -123 29 -137M-4 -50Q-22 -65 -43 -65" fill="none" stroke="#444a49" stroke-width="4.2" stroke-linecap="round" stroke-linejoin="round" /><path d="M-29 -116L-42 -128M23 -132L34 -147M-31 -66L-44 -78" fill="none" stroke="#8d8e82" stroke-width="1.4" stroke-linecap="round" stroke-linejoin="round" /><path d="M-32 -120q-13 -8 -11 -19q13 0 17 13Z" fill="#8d8e82" stroke="#997643" stroke-width="0.6" stroke-linecap="round" stroke-linejoin="round" /><path d="M-15 -107q-13 -8 -11 -19q13 0 17 13Z" fill="#8d8e82" stroke="#997643" stroke-width="0.6" stroke-linecap="round" stroke-linejoin="round" /><path d="M22 -135q-13 -8 -11 -19q13 0 17 13Z" fill="#8d8e82" stroke="#997643" stroke-width="0.6" stroke-linecap="round" stroke-linejoin="round" /><path d="M33 -143q-13 -8 -11 -19q13 0 17 13Z" fill="#8d8e82" stroke="#997643" stroke-width="0.6" stroke-linecap="round" stroke-linejoin="round" /><path d="M-42 -70q-13 -8 -11 -19q13 0 17 13Z" fill="#8d8e82" stroke="#997643" stroke-width="0.6" stroke-linecap="round" stroke-linejoin="round" /></g><rect x="92" y="259" width="96" height="75" fill="#8d8e82" stroke="#444a49" stroke-width="1.5" /><path d="M85 270Q140 230 195 270L185 336H95Z" fill="#cebc9d" stroke="#444a49" stroke-width="1.7" stroke-linecap="round" stroke-linejoin="round" /><g transform="translate(141 330) scale(1.3 1.3)"><path d="M-8 -66Q0 -72 8 -66L16 -39L20 -5Q0 5 -20 -5L-16 -39Z" fill="#cebc9d" stroke="#4c514f" stroke-width="1.2" stroke-linecap="round" stroke-linejoin="round" /><path d="M-8 -62Q-4 -37 -13 -13M7 -61Q6 -33 13 -11M-1 -66Q2 -40 0 -2" fill="none" stroke="#f2ebd9" stroke-width="0.85" stroke-linecap="round" stroke-linejoin="round" opacity=".72"/><path d="M-11 -65Q-25 -57 -33 -45L-30 -40L-6 -52M10 -65Q25 -57 33 -45L30 -40L6 -52" fill="none" stroke="#4c514f" stroke-width="5.5" stroke-linecap="round" stroke-linejoin="round" /><path d="M-11 -65Q-25 -57 -33 -45L-30 -40L-6 -52M10 -65Q25 -57 33 -45L30 -40L6 -52" fill="none" stroke="#cebc9d" stroke-width="2.7" stroke-linecap="round" stroke-linejoin="round" /><circle cx="0" cy="-82" r="11" fill="#ddd8c8" stroke="#4c514f" stroke-width="1.2" /><path d="M-11 -84Q-12 -103 2 -103Q15 -99 10 -83Q4 -91 -2 -89Q-7 -84 -11 -84Z" fill="#444a49" stroke="none" stroke-width="1.5" stroke-linecap="round" stroke-linejoin="round" /><path d="M-3 -77Q1 -75 5 -78" fill="none" stroke="#4c514f" stroke-width="0.8" stroke-linecap="round" stroke-linejoin="round" /><path d="M-19 -4L-22 1M18 -4L22 1" fill="none" stroke="#4c514f" stroke-width="1.3" stroke-linecap="round" stroke-linejoin="round" /></g><g transform="translate(39 383) scale(0.7)"><path d="M0 0V-64M0 -52Q-9 -62 -7 -70M0 -45Q9 -56 7 -65" fill="none" stroke="#997643" stroke-width="1.5" stroke-linecap="round" stroke-linejoin="round" /><path d="M-7 -70l5 -1M7 -65l5 -3" fill="none" stroke="#997643" stroke-width="1.5" stroke-linecap="round" stroke-linejoin="round" /></g><g transform="translate(52 383) scale(1)"><path d="M0 0V-64M0 -52Q-9 -62 -7 -70M0 -45Q9 -56 7 -65" fill="none" stroke="#997643" stroke-width="1.5" stroke-linecap="round" stroke-linejoin="round" /><path d="M-7 -70l5 -1M7 -65l5 -3" fill="none" stroke="#997643" stroke-width="1.5" stroke-linecap="round" stroke-linejoin="round" /></g><g transform="translate(68 383) scale(0.75)"><path d="M0 0V-64M0 -52Q-9 -62 -7 -70M0 -45Q9 -56 7 -65" fill="none" stroke="#997643" stroke-width="1.5" stroke-linecap="round" stroke-linejoin="round" /><path d="M-7 -70l5 -1M7 -65l5 -3" fill="none" stroke="#997643" stroke-width="1.5" stroke-linecap="round" stroke-linejoin="round" /></g><g transform="translate(211 383) scale(0.9)"><path d="M0 0V-64M0 -52Q-9 -62 -7 -70M0 -45Q9 -56 7 -65" fill="none" stroke="#997643" stroke-width="1.5" stroke-linecap="round" stroke-linejoin="round" /><path d="M-7 -70l5 -1M7 -65l5 -3" fill="none" stroke="#997643" stroke-width="1.5" stroke-linecap="round" stroke-linejoin="round" /></g><g transform="translate(231 383) scale(0.68)"><path d="M0 0V-64M0 -52Q-9 -62 -7 -70M0 -45Q9 -56 7 -65" fill="none" stroke="#997643" stroke-width="1.5" stroke-linecap="round" stroke-linejoin="round" /><path d="M-7 -70l5 -1M7 -65l5 -3" fill="none" stroke="#997643" stroke-width="1.5" stroke-linecap="round" stroke-linejoin="round" /></g><g transform="translate(248 383) scale(1.1)"><path d="M0 0V-64M0 -52Q-9 -62 -7 -70M0 -45Q9 -56 7 -65" fill="none" stroke="#997643" stroke-width="1.5" stroke-linecap="round" stroke-linejoin="round" /><path d="M-7 -70l5 -1M7 -65l5 -3" fill="none" stroke="#997643" stroke-width="1.5" stroke-linecap="round" stroke-linejoin="round" /></g><g transform="translate(45 315) scale(0.7)"><path d="M0 0Q8 4 11 0Q8 -4 0 0Z" fill="#cebc9d" stroke="#997643" stroke-width="0.8" stroke-linecap="round" stroke-linejoin="round" /><path d="M0 0Q-8 -4 -11 0Q-8 4 0 0Z" fill="#cebc9d" stroke="#997643" stroke-width="0.8" stroke-linecap="round" stroke-linejoin="round" /><path d="M0 0Q-4 8 0 11Q4 8 0 0Z" fill="#cebc9d" stroke="#997643" stroke-width="0.8" stroke-linecap="round" stroke-linejoin="round" /><path d="M0 0Q4 -8 0 -11Q-4 -8 0 0Z" fill="#cebc9d" stroke="#997643" stroke-width="0.8" stroke-linecap="round" stroke-linejoin="round" /><circle cx="0" cy="0" r="2" fill="#997643" stroke="none" stroke-width="1.5" /></g><g transform="translate(218 302) scale(0.8)"><path d="M0 0Q8 4 11 0Q8 -4 0 0Z" fill="#cebc9d" stroke="#997643" stroke-width="0.8" stroke-linecap="round" stroke-linejoin="round" /><path d="M0 0Q-8 -4 -11 0Q-8 4 0 0Z" fill="#cebc9d" stroke="#997643" stroke-width="0.8" stroke-linecap="round" stroke-linejoin="round" /><path d="M0 0Q-4 8 0 11Q4 8 0 0Z" fill="#cebc9d" stroke="#997643" stroke-width="0.8" stroke-linecap="round" stroke-linejoin="round" /><path d="M0 0Q4 -8 0 -11Q-4 -8 0 0Z" fill="#cebc9d" stroke="#997643" stroke-width="0.8" stroke-linecap="round" stroke-linejoin="round" /><circle cx="0" cy="0" r="2" fill="#997643" stroke="none" stroke-width="1.5" /></g></g>
<path d="M41 410H77M203 410H239" stroke="#997643" stroke-width=".75"/>
<circle cx="140" cy="410" r="3" fill="none" stroke="#997643" stroke-width="1"/>
<text class="title" x="140" y="442" font-family="Noto Serif" font-size="22" font-weight="600" fill="#232b2d" text-anchor="middle">The Empress</text>
<text class="label" x="140" y="461" font-family="Noto Sans" font-size="8" font-weight="600" letter-spacing="1.5" fill="#232b2d" text-anchor="middle">ABUNDANCE</text>
</svg>
