<svg xmlns="http://www.w3.org/2000/svg" width="280" height="480" viewBox="0 0 280 480" role="img" aria-labelledby="title description">
<title id="title">Temperance — Ominity Tarot</title><desc id="description">Original symbolic illustration for Temperance.</desc>
<rect width="280" height="480" fill="#f2ebd9"/>
<rect x="8" y="8" width="264" height="464" fill="none" stroke="#997643" stroke-width="1.8"/>
<rect x="14" y="14" width="252" height="452" fill="none" stroke="#232b2d" stroke-width=".75" opacity=".72"/>
<path d="M23 66H257M23 416H257" stroke="#997643" stroke-width="1"/>
<path d="M20 20L36 20M20 20L20 36M260 20L244 20M260 20L260 36M20 460L36 460M20 460L20 444M260 460L244 460M260 460L260 444" stroke="#232b2d" stroke-width="1.4"/>
<text class="number" x="140" y="38" font-family="Noto Serif" font-size="19" font-weight="400" fill="#997643" text-anchor="middle">XIV</text>
<text class="small" x="140" y="56" font-family="Noto Sans" font-size="8" font-weight="600" letter-spacing="1.7" fill="#997643" text-anchor="middle">MAJOR ARCANA</text>
<defs><clipPath id="window"><rect x="24" y="68" width="232" height="346"/></clipPath></defs>
<g clip-path="url(#window)"><rect x="24" y="68" width="232" height="346" fill="#ede6d5"/><defs><linearGradient id="maj-sky-14" x1="0" y1="0" x2="0" y2="1"><stop offset="0" stop-color="#d2ccb9"/><stop offset="1" stop-color="#eae5d4"/></linearGradient></defs><rect x="24" y="68" width="232" height="346" fill="url(#maj-sky-14)" stroke="none" stroke-width="1.5" /><circle cx="140" cy="154" r="33" fill="none" stroke="#997643" stroke-width="0.6" opacity=".55"/><circle cx="140" cy="154" r="41" fill="none" stroke="#997643" stroke-width="0.6" opacity=".55"/><path d="M188.0 154.0L198.0 154.0" fill="none" stroke="#997643" stroke-width="0.9" stroke-linecap="round" stroke-linejoin="round" /><path d="M181.6 178.0L190.2 183.0" fill="none" stroke="#997643" stroke-width="0.9" stroke-linecap="round" stroke-linejoin="round" /><path d="M164.0 195.6L169.0 204.2" fill="none" stroke="#997643" stroke-width="0.9" stroke-linecap="round" stroke-linejoin="round" /><path d="M140.0 202.0L140.0 212.0" fill="none" stroke="#997643" stroke-width="0.9" stroke-linecap="round" stroke-linejoin="round" /><path d="M116.0 195.6L111.0 204.2" fill="none" stroke="#997643" stroke-width="0.9" stroke-linecap="round" stroke-linejoin="round" /><path d="M98.4 178.0L89.8 183.0" fill="none" stroke="#997643" stroke-width="0.9" stroke-linecap="round" stroke-linejoin="round" /><path d="M92.0 154.0L82.0 154.0" fill="none" stroke="#997643" stroke-width="0.9" stroke-linecap="round" stroke-linejoin="round" /><path d="M98.4 130.0L89.8 125.0" fill="none" stroke="#997643" stroke-width="0.9" stroke-linecap="round" stroke-linejoin="round" /><path d="M116.0 112.4L111.0 103.8" fill="none" stroke="#997643" stroke-width="0.9" stroke-linecap="round" stroke-linejoin="round" /><path d="M140.0 106.0L140.0 96.0" fill="none" stroke="#997643" stroke-width="0.9" stroke-linecap="round" stroke-linejoin="round" /><path d="M164.0 112.4L169.0 103.8" fill="none" stroke="#997643" stroke-width="0.9" stroke-linecap="round" stroke-linejoin="round" /><path d="M181.6 130.0L190.2 125.0" fill="none" stroke="#997643" stroke-width="0.9" stroke-linecap="round" stroke-linejoin="round" /><circle cx="140" cy="154" r="24" fill="#cebc9d" stroke="#997643" stroke-width="1.8" /><path d="M24 319Q116 308 256 323V414H24Z" fill="#abb1a6" stroke="none" stroke-width="1.5" stroke-linecap="round" stroke-linejoin="round" /><path d="M34 328Q88 323 129 328T245 328" fill="none" stroke="#8a8f88" stroke-width="0.8" stroke-linecap="round" stroke-linejoin="round" opacity=".72"/><path d="M47 340Q88 335 129 340T245 340" fill="none" stroke="#8a8f88" stroke-width="0.8" stroke-linecap="round" stroke-linejoin="round" opacity=".72"/><path d="M34 352Q88 347 129 352T245 352" fill="none" stroke="#8a8f88" stroke-width="0.8" stroke-linecap="round" stroke-linejoin="round" opacity=".72"/><path d="M47 364Q88 359 129 364T245 364" fill="none" stroke="#8a8f88" stroke-width="0.8" stroke-linecap="round" stroke-linejoin="round" opacity=".72"/><path d="M34 376Q88 371 129 376T245 376" fill="none" stroke="#8a8f88" stroke-width="0.8" stroke-linecap="round" stroke-linejoin="round" opacity=".72"/><path d="M24 334Q63 302 113 322M164 328Q204 293 256 330" fill="#8a8f88" stroke="none" stroke-width="1.5" stroke-linecap="round" stroke-linejoin="round" /><path d="M125 236Q75 219 70 171Q105 179 132 213Z" fill="#cebc9d" stroke="#997643" stroke-width="1.1" stroke-linecap="round" stroke-linejoin="round" /><path d="M155 236Q205 219 210 171Q175 179 148 213Z" fill="#cebc9d" stroke="#997643" stroke-width="1.1" stroke-linecap="round" stroke-linejoin="round" /><g transform="translate(140 318) scale(1.23 1.23)"><path d="M-8 -66Q0 -72 8 -66L16 -39L20 -5Q0 5 -20 -5L-16 -39Z" fill="#ddd8c8" stroke="#4c514f" stroke-width="1.2" stroke-linecap="round" stroke-linejoin="round" /><path d="M-8 -62Q-4 -37 -13 -13M7 -61Q6 -33 13 -11M-1 -66Q2 -40 0 -2" fill="none" stroke="#f2ebd9" stroke-width="0.85" stroke-linecap="round" stroke-linejoin="round" opacity=".72"/><path d="M-11 -65Q-25 -57 -33 -45L-30 -40L-6 -52M10 -65Q25 -57 33 -45L30 -40L6 -52" fill="none" stroke="#4c514f" stroke-width="5.5" stroke-linecap="round" stroke-linejoin="round" /><path d="M-11 -65Q-25 -57 -33 -45L-30 -40L-6 -52M10 -65Q25 -57 33 -45L30 -40L6 -52" fill="none" stroke="#cebc9d" stroke-width="2.7" stroke-linecap="round" stroke-linejoin="round" /><circle cx="0" cy="-82" r="11" fill="#ddd8c8" stroke="#4c514f" stroke-width="1.2" /><path d="M-11 -84Q-12 -103 2 -103Q15 -99 10 -83Q4 -91 -2 -89Q-7 -84 -11 -84Z" fill="#444a49" stroke="none" stroke-width="1.5" stroke-linecap="round" stroke-linejoin="round" /><path d="M-3 -77Q1 -75 5 -78" fill="none" stroke="#4c514f" stroke-width="0.8" stroke-linecap="round" stroke-linejoin="round" /><path d="M-19 -4L-22 1M18 -4L22 1" fill="none" stroke="#4c514f" stroke-width="1.3" stroke-linecap="round" stroke-linejoin="round" /></g><g transform="translate(89 266) scale(0.85)"><path d="M-12 -14Q-12 3 0 7Q12 3 12 -14Z" fill="#cebc9d" stroke="#997643" stroke-width="1.2" stroke-linecap="round" stroke-linejoin="round" /><path d="M-11 -11Q0 -14 11 -11M0 7V19M-9 20H9" fill="none" stroke="#997643" stroke-width="1.8" stroke-linecap="round" stroke-linejoin="round" /></g><g transform="translate(191 264) scale(0.85)"><path d="M-12 -14Q-12 3 0 7Q12 3 12 -14Z" fill="#cebc9d" stroke="#997643" stroke-width="1.2" stroke-linecap="round" stroke-linejoin="round" /><path d="M-11 -11Q0 -14 11 -11M0 7V19M-9 20H9" fill="none" stroke="#997643" stroke-width="1.8" stroke-linecap="round" stroke-linejoin="round" /></g><path d="M92 264Q116 243 143 277Q164 295 190 259" fill="none" stroke="#997643" stroke-width="6" stroke-linecap="round" stroke-linejoin="round" /><path d="M93 264Q122 258 145 285Q170 304 191 261" fill="none" stroke="#f2ebd9" stroke-width="1" stroke-linecap="round" stroke-linejoin="round" /><path d="M121 348Q140 338 159 347" fill="none" stroke="#997643" stroke-width="1.4" stroke-linecap="round" stroke-linejoin="round" /><g transform="translate(46 360) scale(0.7)"><path d="M0 0Q-7 -17 -5 -27M0 0Q1 -17 8 -32M0 0Q8 -12 15 -16" fill="none" stroke="#997643" stroke-width="1.1" stroke-linecap="round" stroke-linejoin="round" /></g><g transform="translate(227 351) scale(0.75)"><path d="M0 0Q-7 -17 -5 -27M0 0Q1 -17 8 -32M0 0Q8 -12 15 -16" fill="none" stroke="#997643" stroke-width="1.1" stroke-linecap="round" stroke-linejoin="round" /></g></g>
<path d="M41 410H77M203 410H239" stroke="#997643" stroke-width=".75"/>
<circle cx="140" cy="410" r="3" fill="none" stroke="#997643" stroke-width="1"/>
<text class="title" x="140" y="442" font-family="Noto Serif" font-size="22" font-weight="600" fill="#232b2d" text-anchor="middle">Temperance</text>
<text class="label" x="140" y="461" font-family="Noto Sans" font-size="8" font-weight="600" letter-spacing="1.5" fill="#232b2d" text-anchor="middle">BALANCE</text>
</svg>
