<svg xmlns="http://www.w3.org/2000/svg" width="280" height="480" viewBox="0 0 280 480" role="img" aria-labelledby="title description">
<title id="title">Justice — Ominity Tarot</title><desc id="description">Original etched tarot plate for Justice.</desc>
<style>
.ink{fill:none;stroke:#232b2d;stroke-width:2.3;stroke-linecap:round;stroke-linejoin:round}
.fine{fill:none;stroke:#232b2d;stroke-opacity:.53;stroke-width:1.15;stroke-linecap:round;stroke-linejoin:round}
.gold{fill:none;stroke:#997643;stroke-width:2;stroke-linecap:round;stroke-linejoin:round}
.faint{fill:none;stroke:#997643;stroke-opacity:.66;stroke-width:1.25}
.inkfill{fill:#232b2d;stroke:#232b2d;stroke-width:1}
.distant{fill:#997643;fill-opacity:.13;stroke:#997643;stroke-opacity:.58;stroke-width:1.5;stroke-linejoin:round}
.terrain{fill:none;stroke:#997643;stroke-opacity:.76;stroke-width:1.9;stroke-linecap:round;stroke-linejoin:round}
.halo{fill:#997643;fill-opacity:.10;stroke:#997643;stroke-width:1.25}
.cloud{fill:none;stroke:#232b2d;stroke-opacity:.32;stroke-width:1.3;stroke-linecap:round}
.wind{fill:none;stroke:#997643;stroke-opacity:.60;stroke-width:1.1;stroke-linecap:round}
.hands{fill:none;stroke:#232b2d;stroke-width:2.4;stroke-linecap:round;stroke-linejoin:round}
.arch{fill:none;stroke:#997643;stroke-width:1.8;stroke-linecap:round;stroke-linejoin:round}
.tension{fill:none;stroke:#997643;stroke-opacity:.55;stroke-width:1.5;stroke-linecap:round}
.bridge{fill:none;stroke:#997643;stroke-width:2.3;stroke-linecap:round}
.ridge{fill:none;stroke:#232b2d;stroke-opacity:.46;stroke-width:1.6;stroke-linejoin:round}
.motion{fill:none;stroke:#997643;stroke-opacity:.54;stroke-width:2;stroke-linecap:round}
.beast{fill:#997643;fill-opacity:.23;stroke:#232b2d;stroke-width:1.8;stroke-linejoin:round}
.regalia{fill:#997643;fill-opacity:.25;stroke:#997643;stroke-width:1.6;stroke-linejoin:round}
.petal{fill:#f2ebd9;stroke:#997643;stroke-width:1.5}
.wash{fill:#997643;fill-opacity:.11;stroke:#232b2d;stroke-width:1.8;stroke-linejoin:round}
.column{fill:#f2ebd9;stroke:#232b2d;stroke-width:2.1}
.sun{fill:#997643;fill-opacity:.2;stroke:#997643;stroke-width:2}
.paperfill{fill:#f2ebd9;stroke:#232b2d;stroke-width:1.8}
.lantern{fill:#997643;fill-opacity:.35;stroke:#232b2d;stroke-width:2}
.vine{fill:none;stroke:#997643;stroke-width:2;stroke-linecap:round;stroke-linejoin:round}
.water{fill:none;stroke:#997643;stroke-width:2;stroke-linecap:round}
.chain{fill:none;stroke:#997643;stroke-width:3;stroke-dasharray:4 4}
.lightning{fill:none;stroke:#997643;stroke-width:7;stroke-linecap:square;stroke-linejoin:miter}
.ghost{fill:none;stroke:#997643;stroke-opacity:.52;stroke-width:1.05;stroke-linecap:round;stroke-linejoin:round}
.landscape{fill:none;stroke:#997643;stroke-opacity:.58;stroke-width:1.5;stroke-linecap:round}
.hatch{fill:none;stroke:#232b2d;stroke-opacity:.42;stroke-width:1;stroke-linecap:round}
</style>
<rect width="280" height="480" fill="#f2ebd9"/>
<rect x="8" y="8" width="264" height="464" fill="none" stroke="#997643" stroke-width="1.8"/>
<rect x="14" y="14" width="252" height="452" fill="none" stroke="#232b2d" stroke-width=".75" opacity=".72"/>
<path d="M23 77H257M23 391H257M25 454H255" stroke="#997643" stroke-width="1"/>
<path d="M20 20L36 20M20 20L20 36M260 20L244 20M260 20L260 36M20 460L36 460M20 460L20 444M260 460L244 460M260 460L260 444" stroke="#232b2d" stroke-width="1.4"/>
<text class="number" x="140" y="42" font-family="Noto Serif" font-size="20" font-weight="400" fill="#997643" text-anchor="middle">XI</text>
<text class="small" x="140" y="64" font-family="Noto Sans" font-size="8" font-weight="600" letter-spacing="1.7" fill="#997643" text-anchor="middle">MAJOR ARCANA</text>
<g clip-path="url(#window)"><path class="ghost" d="M32 374V148Q140 94 248 148V374" /><path class="ghost" d="M38 374V154Q140 108 242 154V374" /><path class="ghost" d="M31 375H249" /><path class="gold" d="M140 110L140.9 113.1L144 114L140.9 114.9L140 118L139.1 114.9L136 114L139.1 113.1Z" /><path class="ghost" d="M34 159H43M237 159H246M31 326H39M241 326H249" /><path class="landscape" d="M39 351Q78 319 117 341Q167 307 241 352" /><path class="ghost" d="M39 361Q79 330 117 351Q166 319 241 362" /><path class="ghost" d="M55 208Q140 149 225 208" /><path class="faint" d="M99 159.6L99.6 161.4L101.4 162L99.6 162.6L99 164.4L98.4 162.6L96.6 162L98.4 161.4Z" /><path class="faint" d="M99 159.6L99.6 161.4L101.4 162L99.6 162.6L99 164.4L98.4 162.6L96.6 162L98.4 161.4Z" /><path class="faint" d="M174 181.6L174.6 183.4L176.4 184L174.6 184.6L174 186.4L173.4 184.6L171.6 184L173.4 183.4Z" /><path class="faint" d="M224 181.6L224.6 183.4L226.4 184L224.6 184.6L224 186.4L223.4 184.6L221.6 184L223.4 183.4Z" /><g transform="translate(140 329) scale(1.4 1.4)"><path class="paperfill" d="M-9 -69L-11 -82Q-9 -92 0 -93Q10 -91 12 -81L8 -68L5 -64H-5Z" /><path class="inkfill" d="M-10 -79Q-13 -93 -1 -96Q10 -97 13 -83Q6 -88 0 -83Q-6 -78 -10 -79Z" /><path class="fine" d="M3 -76L8 -75M-3 -66Q2 -63 6 -67" /><path class="ink" d="M-5 -64L-6 -58M5 -64L6 -58" /><path class="wash" d="M-8 -61Q0 -66 8 -61L18 -51L21 -9Q0 4 -21 -9L-18 -51Z" /><path class="paperfill" d="M-11 -55L-22 -23L-27 -18L-23 -14L-18 -17L-6 -47M11 -55L21 -24L25 -20L22 -15L17 -19L6 -47" /><path class="fine" d="M-8 -47Q0 -39 8 -47M-15 -14Q0 -20 15 -14M-10 -34L-13 -3M9 -35L12 -3M0 -42V-5" /><path class="gold" d="M-18 -8Q0 -2 18 -8M-15 -52Q0 -46 15 -52" /><path class="ink" d="M-11 -2L-11 2M11 -2L11 2" /></g><g transform="translate(140 218) rotate(0) scale(1.2)"><path class="ink" d="M0 -30 L5 12 L0 15 L-5 12Z" /><path class="gold" d="M-13 16L13 16" /><path class="ink" d="M0 16L0 28" /><circle class="gold" cx="0" cy="29" r="2" /></g><path class="gold" d="M68 228L212 228" /><path class="fine" d="M78 228L78 271" /><path class="fine" d="M202 228L202 271" /><path class="ink" d="M59 271Q78 292 97 271ZM183 271Q202 292 221 271Z" /><path class="gold" d="M140 159L142.1 165.9L149 168L142.1 170.1L140 177L137.9 170.1L131 168L137.9 165.9Z" /><path class="gold" d="M61 276H95M185 276H219M78 232V271M202 232V271" /></g>
<defs><clipPath id="window"><rect x="24" y="79" width="232" height="309"/></clipPath></defs>
<path d="M42 382H79M201 382H238" stroke="#997643" stroke-width=".9"/>
<circle cx="140" cy="382" r="4" fill="none" stroke="#997643" stroke-width="1.3"/>
<text class="title" x="140" y="423" font-family="Noto Serif" font-size="22" font-weight="600" fill="#232b2d" text-anchor="middle">Justice</text>
<text class="label" x="140" y="447" font-family="Noto Sans" font-size="9" font-weight="600" letter-spacing="1.8" fill="#232b2d" text-anchor="middle">FAIRNESS</text>
</svg>
