<svg xmlns="http://www.w3.org/2000/svg" width="280" height="480" viewBox="0 0 280 480" role="img" aria-labelledby="title description">
<title id="title">Ace of Pentacles — Ominity Tarot</title><desc id="description">Original symbolic illustration for Ace of Pentacles.</desc>
<rect width="280" height="480" fill="#f2ebd9"/>
<rect x="8" y="8" width="264" height="464" fill="none" stroke="#997643" stroke-width="1.8"/>
<rect x="14" y="14" width="252" height="452" fill="none" stroke="#232b2d" stroke-width=".75" opacity=".72"/>
<path d="M23 66H257M23 416H257" stroke="#997643" stroke-width="1"/>
<path d="M20 20L36 20M20 20L20 36M260 20L244 20M260 20L260 36M20 460L36 460M20 460L20 444M260 460L244 460M260 460L260 444" stroke="#232b2d" stroke-width="1.4"/>
<text class="number" x="140" y="38" font-family="Noto Serif" font-size="19" font-weight="400" fill="#997643" text-anchor="middle">I</text>
<text class="small" x="140" y="56" font-family="Noto Sans" font-size="8" font-weight="600" letter-spacing="1.7" fill="#997643" text-anchor="middle">PENTACLES · EARTH</text>
<defs><clipPath id="window"><rect x="24" y="68" width="232" height="346"/></clipPath></defs>
<g clip-path="url(#window)"><rect x="24" y="68" width="232" height="346" fill="#ede6d5"/><g transform="translate(0 -20.48) scale(1 1.12)"><path d="M24 79H256V388H24Z" fill="#e9dfca" stroke="none" stroke-width="1.4" stroke-linecap="round" stroke-linejoin="round" opacity="1" /><circle cx="194" cy="155" r="27" fill="#d6c6a9" stroke="#997643" stroke-width="1.2" opacity="1"/><path d="M24 303Q77 242 121 289Q164 243 256 291V388H24Z" fill="#dbd7c2" stroke="#65704b" stroke-width="1.3" stroke-linecap="round" stroke-linejoin="round" opacity="0.72" /><path d="M24 347Q80 293 126 335Q194 286 256 335V388H24Z" fill="#bfbfa6" stroke="#232b2d" stroke-width="1.2" stroke-linecap="round" stroke-linejoin="round" opacity="0.56" /><path d="M54 366V287M54 307Q45 298 38 305M54 318Q62 305 71 312" fill="none" stroke="#65704b" stroke-width="1.4" stroke-linecap="round" stroke-linejoin="round" opacity="0.54" /><path d="M226 366V287M226 307Q217 298 210 305M226 318Q234 305 243 312" fill="none" stroke="#65704b" stroke-width="1.4" stroke-linecap="round" stroke-linejoin="round" opacity="0.54" /><path d="M24 367H256" fill="none" stroke="#997643" stroke-width="1.2" stroke-linecap="round" stroke-linejoin="round" opacity="0.65" /><path d="M39 365V191Q140 112 241 191V365" fill="none" stroke="#997643" stroke-width="1.2" stroke-linecap="round" stroke-linejoin="round" opacity="0.58" /><path d="M52 365V199Q140 135 228 199V365" fill="none" stroke="#65704b" stroke-width="1.1" stroke-linecap="round" stroke-linejoin="round" opacity="0.45" /><path d="M40 365H240" fill="none" stroke="#232b2d" stroke-width="1.3" stroke-linecap="round" stroke-linejoin="round" opacity="1" /><path d="M57 355V232Q140 177 224 232V355M72 354V242Q140 200 209 242V354" fill="none" stroke="#997643" stroke-width="2" stroke-linecap="round" stroke-linejoin="round" opacity="1" /><path d="M42 305Q83 278 109 292L129 278L143 289L116 306L70 328Z" fill="#f2ebd9" stroke="#232b2d" stroke-width="1.8" stroke-linecap="round" stroke-linejoin="round" opacity="1" /><circle cx="152" cy="230" r="37" fill="#d6c6a9" stroke="#997643" stroke-width="2" opacity="1"/><circle cx="152" cy="230" r="28.490000000000002" fill="none" stroke="#232b2d" stroke-width="1.1" opacity="1"/><path d="M152.0 205.6L166.4 249.8L128.8 222.4L175.2 222.4L137.6 249.8L152.0 205.6" fill="none" stroke="#65704b" stroke-width="1.3" stroke-linecap="round" stroke-linejoin="round" opacity="1" /><path d="M42 353Q141 316 239 353" fill="none" stroke="#65704b" stroke-width="2" stroke-linecap="round" stroke-linejoin="round" opacity="1" /></g></g>
<path d="M41 410H77M203 410H239" stroke="#997643" stroke-width=".75"/>
<circle cx="140" cy="410" r="3" fill="none" stroke="#997643" stroke-width="1"/>
<text class="title" x="140" y="442" font-family="Noto Serif" font-size="18" font-weight="600" fill="#232b2d" text-anchor="middle">Ace of Pentacles</text>
<text class="label" x="140" y="461" font-family="Noto Sans" font-size="8" font-weight="600" letter-spacing="1.5" fill="#232b2d" text-anchor="middle">OPPORTUNITY</text>
</svg>
