<svg xmlns="http://www.w3.org/2000/svg" width="280" height="480" viewBox="0 0 280 480" role="img" aria-labelledby="title description">
<title id="title">Four of Pentacles — Ominity Tarot</title><desc id="description">Original symbolic illustration for Four of Pentacles.</desc>
<rect width="280" height="480" fill="#f2ebd9"/>
<rect x="8" y="8" width="264" height="464" fill="none" stroke="#997643" stroke-width="1.8"/>
<rect x="14" y="14" width="252" height="452" fill="none" stroke="#232b2d" stroke-width=".75" opacity=".72"/>
<path d="M23 66H257M23 416H257" stroke="#997643" stroke-width="1"/>
<path d="M20 20L36 20M20 20L20 36M260 20L244 20M260 20L260 36M20 460L36 460M20 460L20 444M260 460L244 460M260 460L260 444" stroke="#232b2d" stroke-width="1.4"/>
<text class="number" x="140" y="38" font-family="Noto Serif" font-size="19" font-weight="400" fill="#997643" text-anchor="middle">IV</text>
<text class="small" x="140" y="56" font-family="Noto Sans" font-size="8" font-weight="600" letter-spacing="1.7" fill="#997643" text-anchor="middle">PENTACLES · EARTH</text>
<defs><clipPath id="window"><rect x="24" y="68" width="232" height="346"/></clipPath></defs>
<g clip-path="url(#window)"><rect x="24" y="68" width="232" height="346" fill="#ede6d5"/><g transform="translate(0 -20.48) scale(1 1.12)"><path d="M24 79H256V388H24Z" fill="#e9dfca" stroke="none" stroke-width="1.4" stroke-linecap="round" stroke-linejoin="round" opacity="1" /><circle cx="194" cy="155" r="27" fill="#d6c6a9" stroke="#997643" stroke-width="1.2" opacity="1"/><path d="M24 303Q77 242 121 289Q164 243 256 291V388H24Z" fill="#dbd7c2" stroke="#65704b" stroke-width="1.3" stroke-linecap="round" stroke-linejoin="round" opacity="0.72" /><path d="M24 347Q80 293 126 335Q194 286 256 335V388H24Z" fill="#bfbfa6" stroke="#232b2d" stroke-width="1.2" stroke-linecap="round" stroke-linejoin="round" opacity="0.56" /><path d="M54 366V287M54 307Q45 298 38 305M54 318Q62 305 71 312" fill="none" stroke="#65704b" stroke-width="1.4" stroke-linecap="round" stroke-linejoin="round" opacity="0.54" /><path d="M226 366V287M226 307Q217 298 210 305M226 318Q234 305 243 312" fill="none" stroke="#65704b" stroke-width="1.4" stroke-linecap="round" stroke-linejoin="round" opacity="0.54" /><path d="M24 367H256" fill="none" stroke="#997643" stroke-width="1.2" stroke-linecap="round" stroke-linejoin="round" opacity="0.65" /><path d="M39 365V191Q140 112 241 191V365" fill="none" stroke="#997643" stroke-width="1.2" stroke-linecap="round" stroke-linejoin="round" opacity="0.58" /><path d="M52 365V199Q140 135 228 199V365" fill="none" stroke="#65704b" stroke-width="1.1" stroke-linecap="round" stroke-linejoin="round" opacity="0.45" /><path d="M40 365H240" fill="none" stroke="#232b2d" stroke-width="1.3" stroke-linecap="round" stroke-linejoin="round" opacity="1" /><path d="M51 356V255L82 231H198L229 255V356" fill="#bfbfa6" stroke="#232b2d" stroke-width="1.5" stroke-linecap="round" stroke-linejoin="round" opacity="1" /><g transform="translate(140 348) scale(1.32 1.32)"><circle cx="0" cy="-64" r="8.3" fill="#f2ebd9" stroke="#232b2d" stroke-width="1.5" opacity="1"/><path d="M-9 -66Q-8 -79 1 -78Q12 -77 10 -64Q6 -70 0 -69Q-6 -68 -9 -66Z" fill="#232b2d" stroke="none" stroke-width="1.4" stroke-linecap="round" stroke-linejoin="round" opacity="1" /><path d="M-9 -55Q0 -61 10 -55L19 -19L8 -8L-17 -10L-22 -30Z" fill="#5d615d" stroke="#232b2d" stroke-width="1.5" stroke-linecap="round" stroke-linejoin="round" opacity="1" /><path d="M-18 -13Q5 -20 20 -6L34 -4M-17 -12L-29 0" fill="none" stroke="#232b2d" stroke-width="5" stroke-linecap="round" stroke-linejoin="round" opacity="1" /><path d="M-9 -50L-19 -25L-6 -18M8 -49L21 -31L28 -27" fill="none" stroke="#f2ebd9" stroke-width="3.5" stroke-linecap="round" stroke-linejoin="round" opacity="1" /></g><circle cx="140" cy="290" r="20" fill="#d6c6a9" stroke="#997643" stroke-width="2" opacity="1"/><circle cx="140" cy="290" r="15.4" fill="none" stroke="#232b2d" stroke-width="1.1" opacity="1"/><path d="M140.0 276.8L147.8 300.7L127.5 285.9L152.5 285.9L132.2 300.7L140.0 276.8" fill="none" stroke="#65704b" stroke-width="1.3" stroke-linecap="round" stroke-linejoin="round" opacity="1" /><circle cx="139" cy="203" r="17" fill="#d6c6a9" stroke="#997643" stroke-width="2" opacity="1"/><circle cx="139" cy="203" r="13.09" fill="none" stroke="#232b2d" stroke-width="1.1" opacity="1"/><path d="M139.0 191.8L145.6 212.1L128.3 199.5L149.7 199.5L132.4 212.1L139.0 191.8" fill="none" stroke="#65704b" stroke-width="1.3" stroke-linecap="round" stroke-linejoin="round" opacity="1" /><circle cx="84" cy="352" r="14" fill="#d6c6a9" stroke="#997643" stroke-width="2" opacity="1"/><circle cx="84" cy="352" r="10.780000000000001" fill="none" stroke="#232b2d" stroke-width="1.1" opacity="1"/><path d="M84.0 342.8L89.5 359.5L75.2 349.1L92.8 349.1L78.5 359.5L84.0 342.8" fill="none" stroke="#65704b" stroke-width="1.3" stroke-linecap="round" stroke-linejoin="round" opacity="1" /><circle cx="196" cy="352" r="14" fill="#d6c6a9" stroke="#997643" stroke-width="2" opacity="1"/><circle cx="196" cy="352" r="10.780000000000001" fill="none" stroke="#232b2d" stroke-width="1.1" opacity="1"/><path d="M196.0 342.8L201.5 359.5L187.2 349.1L204.8 349.1L190.5 359.5L196.0 342.8" fill="none" stroke="#65704b" stroke-width="1.3" stroke-linecap="round" stroke-linejoin="round" opacity="1" /><path d="M62 357H218" fill="none" stroke="#997643" stroke-width="2" stroke-linecap="round" stroke-linejoin="round" opacity="1" /></g></g>
<path d="M41 410H77M203 410H239" stroke="#997643" stroke-width=".75"/>
<circle cx="140" cy="410" r="3" fill="none" stroke="#997643" stroke-width="1"/>
<text class="title" x="140" y="442" font-family="Noto Serif" font-size="18" font-weight="600" fill="#232b2d" text-anchor="middle">Four of Pentacles</text>
<text class="label" x="140" y="461" font-family="Noto Sans" font-size="8" font-weight="600" letter-spacing="1.5" fill="#232b2d" text-anchor="middle">SECURITY</text>
</svg>
