<svg xmlns="http://www.w3.org/2000/svg" width="280" height="480" viewBox="0 0 280 480" role="img" aria-labelledby="title description">
<title id="title">Seven of Pentacles — Ominity Tarot</title><desc id="description">Original symbolic illustration for Seven of Pentacles.</desc>
<rect width="280" height="480" fill="#f2ebd9"/>
<rect x="8" y="8" width="264" height="464" fill="none" stroke="#997643" stroke-width="1.8"/>
<rect x="14" y="14" width="252" height="452" fill="none" stroke="#232b2d" stroke-width=".75" opacity=".72"/>
<path d="M23 66H257M23 416H257" stroke="#997643" stroke-width="1"/>
<path d="M20 20L36 20M20 20L20 36M260 20L244 20M260 20L260 36M20 460L36 460M20 460L20 444M260 460L244 460M260 460L260 444" stroke="#232b2d" stroke-width="1.4"/>
<text class="number" x="140" y="38" font-family="Noto Serif" font-size="19" font-weight="400" fill="#997643" text-anchor="middle">VII</text>
<text class="small" x="140" y="56" font-family="Noto Sans" font-size="8" font-weight="600" letter-spacing="1.7" fill="#997643" text-anchor="middle">PENTACLES · EARTH</text>
<defs><clipPath id="window"><rect x="24" y="68" width="232" height="346"/></clipPath></defs>
<g clip-path="url(#window)"><rect x="24" y="68" width="232" height="346" fill="#ede6d5"/><g transform="translate(0 -20.48) scale(1 1.12)"><path d="M24 79H256V388H24Z" fill="#e9dfca" stroke="none" stroke-width="1.4" stroke-linecap="round" stroke-linejoin="round" opacity="1" /><circle cx="194" cy="155" r="27" fill="#d6c6a9" stroke="#997643" stroke-width="1.2" opacity="1"/><path d="M24 303Q77 242 121 289Q164 243 256 291V388H24Z" fill="#dbd7c2" stroke="#65704b" stroke-width="1.3" stroke-linecap="round" stroke-linejoin="round" opacity="0.72" /><path d="M24 347Q80 293 126 335Q194 286 256 335V388H24Z" fill="#bfbfa6" stroke="#232b2d" stroke-width="1.2" stroke-linecap="round" stroke-linejoin="round" opacity="0.56" /><path d="M54 366V287M54 307Q45 298 38 305M54 318Q62 305 71 312" fill="none" stroke="#65704b" stroke-width="1.4" stroke-linecap="round" stroke-linejoin="round" opacity="0.54" /><path d="M226 366V287M226 307Q217 298 210 305M226 318Q234 305 243 312" fill="none" stroke="#65704b" stroke-width="1.4" stroke-linecap="round" stroke-linejoin="round" opacity="0.54" /><path d="M24 367H256" fill="none" stroke="#997643" stroke-width="1.2" stroke-linecap="round" stroke-linejoin="round" opacity="0.65" /><path d="M39 365V191Q140 112 241 191V365" fill="none" stroke="#997643" stroke-width="1.2" stroke-linecap="round" stroke-linejoin="round" opacity="0.58" /><path d="M52 365V199Q140 135 228 199V365" fill="none" stroke="#65704b" stroke-width="1.1" stroke-linecap="round" stroke-linejoin="round" opacity="0.45" /><path d="M40 365H240" fill="none" stroke="#232b2d" stroke-width="1.3" stroke-linecap="round" stroke-linejoin="round" opacity="1" /><g transform="translate(167 347) rotate(0) scale(1.45)"><path d="M-4 0Q-3 -36 -8 -56M2 -35Q17 -52 28 -52M-3 -49Q-18 -68 -30 -67" fill="none" stroke="#232b2d" stroke-width="5" stroke-linecap="round" stroke-linejoin="round" opacity="1" /><path d="M-33 -66Q-36 -88 -15 -91Q-6 -106 10 -93Q26 -99 34 -82Q41 -67 26 -57Q11 -48 -1 -58Q-17 -51 -33 -66Z" fill="#bfbfa6" stroke="#65704b" stroke-width="1.8" stroke-linecap="round" stroke-linejoin="round" opacity="1" /><path d="M-29 -75Q-9 -68 0 -79M4 -87Q20 -80 27 -70" fill="none" stroke="#997643" stroke-width="1.2" stroke-linecap="round" stroke-linejoin="round" opacity="1" /><path d="M-23 -80L-22.28 -76.72L-19 -76L-22.28 -75.28L-23 -72L-23.72 -75.28L-27 -76L-23.72 -76.72Z" fill="#997643" stroke="#f2ebd9" stroke-width="0.7" stroke-linecap="round" stroke-linejoin="round" opacity="1" /><path d="M5 -91L5.72 -87.72L9 -87L5.72 -86.28L5 -83L4.28 -86.28L1 -87L4.28 -87.72Z" fill="#997643" stroke="#f2ebd9" stroke-width="0.7" stroke-linecap="round" stroke-linejoin="round" opacity="1" /><path d="M24 -71L24.72 -67.72L28 -67L24.72 -66.28L24 -63L23.28 -66.28L20 -67L23.28 -67.72Z" fill="#997643" stroke="#f2ebd9" stroke-width="0.7" stroke-linecap="round" stroke-linejoin="round" opacity="1" /></g><circle cx="133" cy="226" r="10" fill="#d6c6a9" stroke="#997643" stroke-width="2" opacity="1"/><circle cx="133" cy="226" r="7.7" fill="none" stroke="#232b2d" stroke-width="1.1" opacity="1"/><circle cx="133" cy="226" r="2.7" fill="#65704b" stroke="none" stroke-width="1.4" opacity="1"/><circle cx="174" cy="210" r="10" fill="#d6c6a9" stroke="#997643" stroke-width="2" opacity="1"/><circle cx="174" cy="210" r="7.7" fill="none" stroke="#232b2d" stroke-width="1.1" opacity="1"/><circle cx="174" cy="210" r="2.7" fill="#65704b" stroke="none" stroke-width="1.4" opacity="1"/><circle cx="202" cy="227" r="10" fill="#d6c6a9" stroke="#997643" stroke-width="2" opacity="1"/><circle cx="202" cy="227" r="7.7" fill="none" stroke="#232b2d" stroke-width="1.1" opacity="1"/><circle cx="202" cy="227" r="2.7" fill="#65704b" stroke="none" stroke-width="1.4" opacity="1"/><circle cx="128" cy="253" r="10" fill="#d6c6a9" stroke="#997643" stroke-width="2" opacity="1"/><circle cx="128" cy="253" r="7.7" fill="none" stroke="#232b2d" stroke-width="1.1" opacity="1"/><circle cx="128" cy="253" r="2.7" fill="#65704b" stroke="none" stroke-width="1.4" opacity="1"/><circle cx="170" cy="249" r="10" fill="#d6c6a9" stroke="#997643" stroke-width="2" opacity="1"/><circle cx="170" cy="249" r="7.7" fill="none" stroke="#232b2d" stroke-width="1.1" opacity="1"/><circle cx="170" cy="249" r="2.7" fill="#65704b" stroke="none" stroke-width="1.4" opacity="1"/><circle cx="206" cy="260" r="10" fill="#d6c6a9" stroke="#997643" stroke-width="2" opacity="1"/><circle cx="206" cy="260" r="7.7" fill="none" stroke="#232b2d" stroke-width="1.1" opacity="1"/><circle cx="206" cy="260" r="2.7" fill="#65704b" stroke="none" stroke-width="1.4" opacity="1"/><circle cx="154" cy="281" r="10" fill="#d6c6a9" stroke="#997643" stroke-width="2" opacity="1"/><circle cx="154" cy="281" r="7.7" fill="none" stroke="#232b2d" stroke-width="1.1" opacity="1"/><circle cx="154" cy="281" r="2.7" fill="#65704b" stroke="none" stroke-width="1.4" opacity="1"/><g transform="translate(72 356) scale(1.13 1.13)"><circle cx="0" cy="-64" r="8.3" fill="#f2ebd9" stroke="#232b2d" stroke-width="1.5" opacity="1"/><path d="M-9 -66Q-8 -79 1 -78Q12 -77 10 -64Q6 -70 0 -69Q-6 -68 -9 -66Z" fill="#232b2d" stroke="none" stroke-width="1.4" stroke-linecap="round" stroke-linejoin="round" opacity="1" /><path d="M-13 -55Q0 -61 13 -55L19 -17L13 2H-13L-19 -17Z" fill="#5d615d" stroke="#232b2d" stroke-width="1.5" stroke-linecap="round" stroke-linejoin="round" opacity="1" /><path d="M-8 -9L-10 5M9 -9L12 5" fill="none" stroke="#232b2d" stroke-width="5" stroke-linecap="round" stroke-linejoin="round" opacity="1" /><path d="M-12 -48L-25 -22L-28 -11M12 -48L24 -23L29 -10" fill="none" stroke="#232b2d" stroke-width="4" stroke-linecap="round" stroke-linejoin="round" opacity="1" /><path d="M-11 -42Q0 -35 11 -42M0 -38V-7" fill="none" stroke="#997643" stroke-width="1.1" stroke-linecap="round" stroke-linejoin="round" opacity="1" /></g><path d="M98 340L126 291" fill="none" stroke="#232b2d" stroke-width="2.5" stroke-linecap="round" stroke-linejoin="round" opacity="1" /><path d="M45 359Q140 330 239 359" fill="none" stroke="#997643" stroke-width="1.5" stroke-linecap="round" stroke-linejoin="round" opacity="1" /></g></g>
<path d="M41 410H77M203 410H239" stroke="#997643" stroke-width=".75"/>
<circle cx="140" cy="410" r="3" fill="none" stroke="#997643" stroke-width="1"/>
<text class="title" x="140" y="442" font-family="Noto Serif" font-size="16" font-weight="600" fill="#232b2d" text-anchor="middle">Seven of Pentacles</text>
<text class="label" x="140" y="461" font-family="Noto Sans" font-size="8" font-weight="600" letter-spacing="1.5" fill="#232b2d" text-anchor="middle">PATIENCE</text>
</svg>
