<svg xmlns="http://www.w3.org/2000/svg" width="280" height="480" viewBox="0 0 280 480" role="img" aria-labelledby="title description">
<title id="title">Four of Swords — Ominity Tarot</title><desc id="description">Original symbolic illustration for Four of Swords.</desc>
<rect width="280" height="480" fill="#f2ebd9"/>
<rect x="8" y="8" width="264" height="464" fill="none" stroke="#997643" stroke-width="1.8"/>
<rect x="14" y="14" width="252" height="452" fill="none" stroke="#232b2d" stroke-width=".75" opacity=".72"/>
<path d="M23 66H257M23 416H257" stroke="#997643" stroke-width="1"/>
<path d="M20 20L36 20M20 20L20 36M260 20L244 20M260 20L260 36M20 460L36 460M20 460L20 444M260 460L244 460M260 460L260 444" stroke="#232b2d" stroke-width="1.4"/>
<text class="number" x="140" y="38" font-family="Noto Serif" font-size="19" font-weight="400" fill="#997643" text-anchor="middle">IV</text>
<text class="small" x="140" y="56" font-family="Noto Sans" font-size="8" font-weight="600" letter-spacing="1.7" fill="#997643" text-anchor="middle">SWORDS · AIR</text>
<defs><clipPath id="window"><rect x="24" y="68" width="232" height="346"/></clipPath></defs>
<g clip-path="url(#window)"><rect x="24" y="68" width="232" height="346" fill="#ede6d5"/><g transform="translate(0 -20.48) scale(1 1.12)"><path d="M24 79H256V388H24Z" fill="#e9dfca" stroke="none" stroke-width="1.4" stroke-linecap="round" stroke-linejoin="round" opacity="1" /><path d="M40 86L40 315M76 86L76 288M112 86L112 308M148 86L148 290M184 86L184 304M220 86L220 289" fill="none" stroke="#596d78" stroke-width="1" stroke-linecap="round" stroke-linejoin="round" opacity="0.23" /><path d="M24 183Q58 165 87 181T151 178T256 183M24 223Q71 210 105 221T188 215T256 220" fill="none" stroke="#232b2d" stroke-width="1.1" stroke-linecap="round" stroke-linejoin="round" opacity="0.3" /><path d="M24 345L72 308L117 333L164 293L207 329L256 305V388H24Z" fill="#dad7c9" stroke="#596d78" stroke-width="1.25" stroke-linecap="round" stroke-linejoin="round" opacity="1" /><path d="M24 360Q76 326 134 349Q201 312 256 350V388H24Z" fill="#bbbeb6" stroke="#232b2d" stroke-width="1.2" stroke-linecap="round" stroke-linejoin="round" opacity="0.55" /><path d="M52 128L83 119M103 144L142 133M178 113L222 99" fill="none" stroke="#596d78" stroke-width="1.8" stroke-linecap="round" stroke-linejoin="round" opacity="0.7" /><path d="M39 365V204L140 146L241 204V365" fill="none" stroke="#997643" stroke-width="1.2" stroke-linecap="round" stroke-linejoin="round" opacity="0.6" /><path d="M51 365V214L140 164L229 214V365" fill="none" stroke="#596d78" stroke-width="1.1" stroke-linecap="round" stroke-linejoin="round" opacity="0.43" /><path d="M40 365H240" fill="none" stroke="#232b2d" stroke-width="1.3" stroke-linecap="round" stroke-linejoin="round" opacity="1" /><path d="M51 341V193Q140 130 229 193V341" fill="#dad7c9" stroke="#997643" stroke-width="1.7" stroke-linecap="round" stroke-linejoin="round" opacity="1" /><path d="M95 207L140 162L185 207L140 249Z" fill="#d6c6a9" stroke="#232b2d" stroke-width="1.1" stroke-linecap="round" stroke-linejoin="round" opacity="1" /><path d="M140 167V247M99 208H181M111 191L169 225M169 191L111 225" fill="none" stroke="#997643" stroke-width="1" stroke-linecap="round" stroke-linejoin="round" opacity="1" /><path d="M64 299L77 270L89 299M190 298L203 269L216 299" fill="none" stroke="#596d78" stroke-width="1.1" stroke-linecap="round" stroke-linejoin="round" opacity="1" /><path d="M66 311H216V350H66Z" fill="#5d615d" stroke="#232b2d" stroke-width="1.6" stroke-linecap="round" stroke-linejoin="round" opacity="1" /><path d="M74 318H208M74 340H208" fill="none" stroke="#997643" stroke-width="1.2" stroke-linecap="round" stroke-linejoin="round" opacity="1" /><circle cx="92" cy="309" r="9" fill="#f2ebd9" stroke="#232b2d" stroke-width="1.3" opacity="1"/><path d="M84 307Q85 294 93 294Q102 296 102 306Q93 300 84 307Z" fill="#232b2d" stroke="none" stroke-width="1.4" stroke-linecap="round" stroke-linejoin="round" opacity="1" /><path d="M101 306Q119 298 147 303L184 311L205 317V329H99Z" fill="#bbbeb6" stroke="#232b2d" stroke-width="1.4" stroke-linecap="round" stroke-linejoin="round" opacity="1" /><path d="M104 311Q139 315 181 313M118 303L137 319M140 303L160 318" fill="none" stroke="#997643" stroke-width="1" stroke-linecap="round" stroke-linejoin="round" opacity="1" /><g transform="translate(89 276) rotate(90) scale(0.68)"><path d="M0 -43L5 8L0 14L-5 8Z" fill="#f2ebd9" stroke="#232b2d" stroke-width="1.5" stroke-linecap="round" stroke-linejoin="round" opacity="1" /><path d="M0 -38V9" fill="none" stroke="#596d78" stroke-width="1" stroke-linecap="round" stroke-linejoin="round" opacity="1" /><path d="M-17 15Q0 12 17 15L13 19H-13Z" fill="#997643" stroke="#232b2d" stroke-width="1.1" stroke-linecap="round" stroke-linejoin="round" opacity="1" /><path d="M0 19V33" fill="none" stroke="#232b2d" stroke-width="3" stroke-linecap="round" stroke-linejoin="round" opacity="1" /><circle cx="0" cy="34" r="3" fill="#997643" stroke="#232b2d" stroke-width="1" opacity="1"/></g><g transform="translate(142 276) rotate(90) scale(0.68)"><path d="M0 -43L5 8L0 14L-5 8Z" fill="#f2ebd9" stroke="#232b2d" stroke-width="1.5" stroke-linecap="round" stroke-linejoin="round" opacity="1" /><path d="M0 -38V9" fill="none" stroke="#596d78" stroke-width="1" stroke-linecap="round" stroke-linejoin="round" opacity="1" /><path d="M-17 15Q0 12 17 15L13 19H-13Z" fill="#997643" stroke="#232b2d" stroke-width="1.1" stroke-linecap="round" stroke-linejoin="round" opacity="1" /><path d="M0 19V33" fill="none" stroke="#232b2d" stroke-width="3" stroke-linecap="round" stroke-linejoin="round" opacity="1" /><circle cx="0" cy="34" r="3" fill="#997643" stroke="#232b2d" stroke-width="1" opacity="1"/></g><g transform="translate(195 276) rotate(90) scale(0.68)"><path d="M0 -43L5 8L0 14L-5 8Z" fill="#f2ebd9" stroke="#232b2d" stroke-width="1.5" stroke-linecap="round" stroke-linejoin="round" opacity="1" /><path d="M0 -38V9" fill="none" stroke="#596d78" stroke-width="1" stroke-linecap="round" stroke-linejoin="round" opacity="1" /><path d="M-17 15Q0 12 17 15L13 19H-13Z" fill="#997643" stroke="#232b2d" stroke-width="1.1" stroke-linecap="round" stroke-linejoin="round" opacity="1" /><path d="M0 19V33" fill="none" stroke="#232b2d" stroke-width="3" stroke-linecap="round" stroke-linejoin="round" opacity="1" /><circle cx="0" cy="34" r="3" fill="#997643" stroke="#232b2d" stroke-width="1" opacity="1"/></g><g transform="translate(140 211) rotate(0) scale(0.55)"><path d="M0 -43L5 8L0 14L-5 8Z" fill="#f2ebd9" stroke="#232b2d" stroke-width="1.5" stroke-linecap="round" stroke-linejoin="round" opacity="1" /><path d="M0 -38V9" fill="none" stroke="#596d78" stroke-width="1" stroke-linecap="round" stroke-linejoin="round" opacity="1" /><path d="M-17 15Q0 12 17 15L13 19H-13Z" fill="#997643" stroke="#232b2d" stroke-width="1.1" stroke-linecap="round" stroke-linejoin="round" opacity="1" /><path d="M0 19V33" fill="none" stroke="#232b2d" stroke-width="3" stroke-linecap="round" stroke-linejoin="round" opacity="1" /><circle cx="0" cy="34" r="3" fill="#997643" stroke="#232b2d" stroke-width="1" opacity="1"/></g></g></g>
<path d="M41 410H77M203 410H239" stroke="#997643" stroke-width=".75"/>
<circle cx="140" cy="410" r="3" fill="none" stroke="#997643" stroke-width="1"/>
<text class="title" x="140" y="442" font-family="Noto Serif" font-size="18" font-weight="600" fill="#232b2d" text-anchor="middle">Four of Swords</text>
<text class="label" x="140" y="461" font-family="Noto Sans" font-size="8" font-weight="600" letter-spacing="1.5" fill="#232b2d" text-anchor="middle">REST</text>
</svg>
