<svg xmlns="http://www.w3.org/2000/svg" width="280" height="480" viewBox="0 0 280 480" role="img" aria-labelledby="title description">
<title id="title">Five of Swords — Ominity Tarot</title><desc id="description">Original symbolic illustration for Five of Swords.</desc>
<rect width="280" height="480" fill="#f2ebd9"/>
<rect x="8" y="8" width="264" height="464" fill="none" stroke="#997643" stroke-width="1.8"/>
<rect x="14" y="14" width="252" height="452" fill="none" stroke="#232b2d" stroke-width=".75" opacity=".72"/>
<path d="M23 66H257M23 416H257" stroke="#997643" stroke-width="1"/>
<path d="M20 20L36 20M20 20L20 36M260 20L244 20M260 20L260 36M20 460L36 460M20 460L20 444M260 460L244 460M260 460L260 444" stroke="#232b2d" stroke-width="1.4"/>
<text class="number" x="140" y="38" font-family="Noto Serif" font-size="19" font-weight="400" fill="#997643" text-anchor="middle">V</text>
<text class="small" x="140" y="56" font-family="Noto Sans" font-size="8" font-weight="600" letter-spacing="1.7" fill="#997643" text-anchor="middle">SWORDS · AIR</text>
<defs><clipPath id="window"><rect x="24" y="68" width="232" height="346"/></clipPath></defs>
<g clip-path="url(#window)"><rect x="24" y="68" width="232" height="346" fill="#ede6d5"/><g transform="translate(0 -20.48) scale(1 1.12)"><path d="M24 79H256V388H24Z" fill="#e9dfca" stroke="none" stroke-width="1.4" stroke-linecap="round" stroke-linejoin="round" opacity="1" /><path d="M40 86L40 315M76 86L76 288M112 86L112 308M148 86L148 290M184 86L184 304M220 86L220 289" fill="none" stroke="#596d78" stroke-width="1" stroke-linecap="round" stroke-linejoin="round" opacity="0.23" /><path d="M24 183Q58 165 87 181T151 178T256 183M24 223Q71 210 105 221T188 215T256 220" fill="none" stroke="#232b2d" stroke-width="1.1" stroke-linecap="round" stroke-linejoin="round" opacity="0.3" /><path d="M24 332L72 295L117 320L164 280L207 316L256 292V388H24Z" fill="#dad7c9" stroke="#596d78" stroke-width="1.25" stroke-linecap="round" stroke-linejoin="round" opacity="1" /><path d="M24 360Q76 326 134 349Q201 312 256 350V388H24Z" fill="#bbbeb6" stroke="#232b2d" stroke-width="1.2" stroke-linecap="round" stroke-linejoin="round" opacity="0.55" /><path d="M52 128L83 119M103 144L142 133M178 113L222 99" fill="none" stroke="#596d78" stroke-width="1.8" stroke-linecap="round" stroke-linejoin="round" opacity="0.7" /><path d="M39 365V211L140 153L241 211V365" fill="none" stroke="#997643" stroke-width="1.2" stroke-linecap="round" stroke-linejoin="round" opacity="0.6" /><path d="M51 365V221L140 171L229 221V365" fill="none" stroke="#596d78" stroke-width="1.1" stroke-linecap="round" stroke-linejoin="round" opacity="0.43" /><path d="M40 365H240" fill="none" stroke="#232b2d" stroke-width="1.3" stroke-linecap="round" stroke-linejoin="round" opacity="1" /><g transform="translate(140 348) scale(1.22 1.22)"><circle cx="0" cy="-64" r="8.3" fill="#f2ebd9" stroke="#232b2d" stroke-width="1.5" opacity="1"/><path d="M-9 -66Q-8 -79 1 -78Q12 -77 10 -64Q6 -70 0 -69Q-6 -68 -9 -66Z" fill="#232b2d" stroke="none" stroke-width="1.4" stroke-linecap="round" stroke-linejoin="round" opacity="1" /><path d="M-13 -55Q0 -61 13 -55L19 -17L13 2H-13L-19 -17Z" fill="#5d615d" stroke="#232b2d" stroke-width="1.5" stroke-linecap="round" stroke-linejoin="round" opacity="1" /><path d="M-8 -9L-10 5M9 -9L12 5" fill="none" stroke="#232b2d" stroke-width="5" stroke-linecap="round" stroke-linejoin="round" opacity="1" /><path d="M-12 -48L-25 -22L-28 -11M12 -48L24 -23L29 -10" fill="none" stroke="#232b2d" stroke-width="4" stroke-linecap="round" stroke-linejoin="round" opacity="1" /><path d="M-11 -42Q0 -35 11 -42M0 -38V-7" fill="none" stroke="#997643" stroke-width="1.1" stroke-linecap="round" stroke-linejoin="round" opacity="1" /></g><g transform="translate(111 307) rotate(-24) scale(0.8)"><path d="M0 -43L5 8L0 14L-5 8Z" fill="#f2ebd9" stroke="#232b2d" stroke-width="1.5" stroke-linecap="round" stroke-linejoin="round" opacity="1" /><path d="M0 -38V9" fill="none" stroke="#596d78" stroke-width="1" stroke-linecap="round" stroke-linejoin="round" opacity="1" /><path d="M-17 15Q0 12 17 15L13 19H-13Z" fill="#997643" stroke="#232b2d" stroke-width="1.1" stroke-linecap="round" stroke-linejoin="round" opacity="1" /><path d="M0 19V33" fill="none" stroke="#232b2d" stroke-width="3" stroke-linecap="round" stroke-linejoin="round" opacity="1" /><circle cx="0" cy="34" r="3" fill="#997643" stroke="#232b2d" stroke-width="1" opacity="1"/></g><g transform="translate(174 311) rotate(23) scale(0.8)"><path d="M0 -43L5 8L0 14L-5 8Z" fill="#f2ebd9" stroke="#232b2d" stroke-width="1.5" stroke-linecap="round" stroke-linejoin="round" opacity="1" /><path d="M0 -38V9" fill="none" stroke="#596d78" stroke-width="1" stroke-linecap="round" stroke-linejoin="round" opacity="1" /><path d="M-17 15Q0 12 17 15L13 19H-13Z" fill="#997643" stroke="#232b2d" stroke-width="1.1" stroke-linecap="round" stroke-linejoin="round" opacity="1" /><path d="M0 19V33" fill="none" stroke="#232b2d" stroke-width="3" stroke-linecap="round" stroke-linejoin="round" opacity="1" /><circle cx="0" cy="34" r="3" fill="#997643" stroke="#232b2d" stroke-width="1" opacity="1"/></g><g transform="translate(68 333) rotate(65) scale(0.65)"><path d="M0 -43L5 8L0 14L-5 8Z" fill="#f2ebd9" stroke="#232b2d" stroke-width="1.5" stroke-linecap="round" stroke-linejoin="round" opacity="1" /><path d="M0 -38V9" fill="none" stroke="#596d78" stroke-width="1" stroke-linecap="round" stroke-linejoin="round" opacity="1" /><path d="M-17 15Q0 12 17 15L13 19H-13Z" fill="#997643" stroke="#232b2d" stroke-width="1.1" stroke-linecap="round" stroke-linejoin="round" opacity="1" /><path d="M0 19V33" fill="none" stroke="#232b2d" stroke-width="3" stroke-linecap="round" stroke-linejoin="round" opacity="1" /><circle cx="0" cy="34" r="3" fill="#997643" stroke="#232b2d" stroke-width="1" opacity="1"/></g><g transform="translate(208 339) rotate(-75) scale(0.65)"><path d="M0 -43L5 8L0 14L-5 8Z" fill="#f2ebd9" stroke="#232b2d" stroke-width="1.5" stroke-linecap="round" stroke-linejoin="round" opacity="1" /><path d="M0 -38V9" fill="none" stroke="#596d78" stroke-width="1" stroke-linecap="round" stroke-linejoin="round" opacity="1" /><path d="M-17 15Q0 12 17 15L13 19H-13Z" fill="#997643" stroke="#232b2d" stroke-width="1.1" stroke-linecap="round" stroke-linejoin="round" opacity="1" /><path d="M0 19V33" fill="none" stroke="#232b2d" stroke-width="3" stroke-linecap="round" stroke-linejoin="round" opacity="1" /><circle cx="0" cy="34" r="3" fill="#997643" stroke="#232b2d" stroke-width="1" opacity="1"/></g><g transform="translate(176 355) rotate(85) scale(0.65)"><path d="M0 -43L5 8L0 14L-5 8Z" fill="#f2ebd9" stroke="#232b2d" stroke-width="1.5" stroke-linecap="round" stroke-linejoin="round" opacity="1" /><path d="M0 -38V9" fill="none" stroke="#596d78" stroke-width="1" stroke-linecap="round" stroke-linejoin="round" opacity="1" /><path d="M-17 15Q0 12 17 15L13 19H-13Z" fill="#997643" stroke="#232b2d" stroke-width="1.1" stroke-linecap="round" stroke-linejoin="round" opacity="1" /><path d="M0 19V33" fill="none" stroke="#232b2d" stroke-width="3" stroke-linecap="round" stroke-linejoin="round" opacity="1" /><circle cx="0" cy="34" r="3" fill="#997643" stroke="#232b2d" stroke-width="1" opacity="1"/></g><g transform="translate(57 309) scale(-0.55 0.55)"><circle cx="0" cy="-64" r="8.3" fill="#f2ebd9" stroke="#232b2d" stroke-width="1.5" opacity="1"/><path d="M-9 -66Q-8 -79 1 -78Q12 -77 10 -64Q6 -70 0 -69Q-6 -68 -9 -66Z" fill="#232b2d" stroke="none" stroke-width="1.4" stroke-linecap="round" stroke-linejoin="round" opacity="1" /><path d="M-13 -55Q0 -61 13 -55L19 -17L13 2H-13L-19 -17Z" fill="#5d615d" stroke="#232b2d" stroke-width="1.5" stroke-linecap="round" stroke-linejoin="round" opacity="1" /><path d="M-8 -9L-10 5M9 -9L12 5" fill="none" stroke="#232b2d" stroke-width="5" stroke-linecap="round" stroke-linejoin="round" opacity="1" /><path d="M-12 -48L-25 -22L-28 -11M12 -48L24 -23L29 -10" fill="none" stroke="#232b2d" stroke-width="4" stroke-linecap="round" stroke-linejoin="round" opacity="1" /><path d="M-11 -42Q0 -35 11 -42M0 -38V-7" fill="none" stroke="#997643" stroke-width="1.1" stroke-linecap="round" stroke-linejoin="round" opacity="1" /></g><g transform="translate(226 316) scale(0.5 0.5)"><circle cx="0" cy="-64" r="8.3" fill="#f2ebd9" stroke="#232b2d" stroke-width="1.5" opacity="1"/><path d="M-9 -66Q-8 -79 1 -78Q12 -77 10 -64Q6 -70 0 -69Q-6 -68 -9 -66Z" fill="#232b2d" stroke="none" stroke-width="1.4" stroke-linecap="round" stroke-linejoin="round" opacity="1" /><path d="M-13 -55Q0 -61 13 -55L19 -17L13 2H-13L-19 -17Z" fill="#5d615d" stroke="#232b2d" stroke-width="1.5" stroke-linecap="round" stroke-linejoin="round" opacity="1" /><path d="M-8 -9L-10 5M9 -9L12 5" fill="none" stroke="#232b2d" stroke-width="5" stroke-linecap="round" stroke-linejoin="round" opacity="1" /><path d="M-12 -48L-25 -22L-28 -11M12 -48L24 -23L29 -10" fill="none" stroke="#232b2d" stroke-width="4" stroke-linecap="round" stroke-linejoin="round" opacity="1" /><path d="M-11 -42Q0 -35 11 -42M0 -38V-7" fill="none" stroke="#997643" stroke-width="1.1" stroke-linecap="round" stroke-linejoin="round" opacity="1" /></g><path d="M36 357Q140 318 244 358" fill="none" stroke="#997643" stroke-width="1.4" stroke-linecap="round" stroke-linejoin="round" opacity="1" /></g></g>
<path d="M41 410H77M203 410H239" stroke="#997643" stroke-width=".75"/>
<circle cx="140" cy="410" r="3" fill="none" stroke="#997643" stroke-width="1"/>
<text class="title" x="140" y="442" font-family="Noto Serif" font-size="18" font-weight="600" fill="#232b2d" text-anchor="middle">Five of Swords</text>
<text class="label" x="140" y="461" font-family="Noto Sans" font-size="8" font-weight="600" letter-spacing="1.5" fill="#232b2d" text-anchor="middle">CONFLICT</text>
</svg>
