<svg xmlns="http://www.w3.org/2000/svg" width="280" height="480" viewBox="0 0 280 480" role="img" aria-labelledby="title description">
<title id="title">Queen of Wands — Ominity Tarot</title><desc id="description">Original symbolic illustration for Queen of Wands.</desc>
<rect width="280" height="480" fill="#f2ebd9"/>
<rect x="8" y="8" width="264" height="464" fill="none" stroke="#997643" stroke-width="1.8"/>
<rect x="14" y="14" width="252" height="452" fill="none" stroke="#232b2d" stroke-width=".75" opacity=".72"/>
<path d="M23 66H257M23 416H257" stroke="#997643" stroke-width="1"/>
<path d="M20 20L36 20M20 20L20 36M260 20L244 20M260 20L260 36M20 460L36 460M20 460L20 444M260 460L244 460M260 460L260 444" stroke="#232b2d" stroke-width="1.4"/>
<text class="number" x="140" y="38" font-family="Noto Serif" font-size="19" font-weight="400" fill="#997643" text-anchor="middle">QUEEN</text>
<text class="small" x="140" y="56" font-family="Noto Sans" font-size="8" font-weight="600" letter-spacing="1.7" fill="#997643" text-anchor="middle">WANDS · FIRE</text>
<defs><clipPath id="window"><rect x="24" y="68" width="232" height="346"/></clipPath></defs>
<g clip-path="url(#window)"><rect x="24" y="68" width="232" height="346" fill="#ede6d5"/><g transform="translate(0 -20.48) scale(1 1.12)"><path d="M24 79H256V388H24Z" fill="#e9dfca" stroke="none" stroke-width="1.4" stroke-linecap="round" stroke-linejoin="round" opacity="1" /><path d="M199 128L199 42" fill="none" stroke="#997643" stroke-width="1.1" stroke-linecap="round" stroke-linejoin="round" opacity="0.65" transform="rotate(0.0 199 162)"/><path d="M199 128L199 42" fill="none" stroke="#997643" stroke-width="1.1" stroke-linecap="round" stroke-linejoin="round" opacity="0.65" transform="rotate(20.0 199 162)"/><path d="M199 128L199 42" fill="none" stroke="#997643" stroke-width="1.1" stroke-linecap="round" stroke-linejoin="round" opacity="0.65" transform="rotate(40.0 199 162)"/><path d="M199 128L199 42" fill="none" stroke="#997643" stroke-width="1.1" stroke-linecap="round" stroke-linejoin="round" opacity="0.65" transform="rotate(60.0 199 162)"/><path d="M199 128L199 42" fill="none" stroke="#997643" stroke-width="1.1" stroke-linecap="round" stroke-linejoin="round" opacity="0.65" transform="rotate(80.0 199 162)"/><path d="M199 128L199 42" fill="none" stroke="#997643" stroke-width="1.1" stroke-linecap="round" stroke-linejoin="round" opacity="0.65" transform="rotate(100.0 199 162)"/><path d="M199 128L199 42" fill="none" stroke="#997643" stroke-width="1.1" stroke-linecap="round" stroke-linejoin="round" opacity="0.65" transform="rotate(120.0 199 162)"/><path d="M199 128L199 42" fill="none" stroke="#997643" stroke-width="1.1" stroke-linecap="round" stroke-linejoin="round" opacity="0.65" transform="rotate(140.0 199 162)"/><path d="M199 128L199 42" fill="none" stroke="#997643" stroke-width="1.1" stroke-linecap="round" stroke-linejoin="round" opacity="0.65" transform="rotate(160.0 199 162)"/><path d="M199 128L199 42" fill="none" stroke="#997643" stroke-width="1.1" stroke-linecap="round" stroke-linejoin="round" opacity="0.65" transform="rotate(180.0 199 162)"/><path d="M199 128L199 42" fill="none" stroke="#997643" stroke-width="1.1" stroke-linecap="round" stroke-linejoin="round" opacity="0.65" transform="rotate(200.0 199 162)"/><path d="M199 128L199 42" fill="none" stroke="#997643" stroke-width="1.1" stroke-linecap="round" stroke-linejoin="round" opacity="0.65" transform="rotate(220.0 199 162)"/><path d="M199 128L199 42" fill="none" stroke="#997643" stroke-width="1.1" stroke-linecap="round" stroke-linejoin="round" opacity="0.65" transform="rotate(240.0 199 162)"/><path d="M199 128L199 42" fill="none" stroke="#997643" stroke-width="1.1" stroke-linecap="round" stroke-linejoin="round" opacity="0.65" transform="rotate(260.0 199 162)"/><path d="M199 128L199 42" fill="none" stroke="#997643" stroke-width="1.1" stroke-linecap="round" stroke-linejoin="round" opacity="0.65" transform="rotate(280.0 199 162)"/><path d="M199 128L199 42" fill="none" stroke="#997643" stroke-width="1.1" stroke-linecap="round" stroke-linejoin="round" opacity="0.65" transform="rotate(300.0 199 162)"/><path d="M199 128L199 42" fill="none" stroke="#997643" stroke-width="1.1" stroke-linecap="round" stroke-linejoin="round" opacity="0.65" transform="rotate(320.0 199 162)"/><path d="M199 128L199 42" fill="none" stroke="#997643" stroke-width="1.1" stroke-linecap="round" stroke-linejoin="round" opacity="0.65" transform="rotate(340.0 199 162)"/><circle cx="199" cy="162" r="32" fill="#d6c6a9" stroke="#997643" stroke-width="1.4" opacity="1"/><path d="M24 305L66 247L98 281L151 221L211 286L256 249V388H24Z" fill="#e6d4c1" stroke="#a65942" stroke-width="1.1" stroke-linecap="round" stroke-linejoin="round" opacity="0.7" /><path d="M24 338Q83 291 123 335Q178 289 256 331V388H24Z" fill="#d7b6a3" stroke="#a65942" stroke-width="1.6" stroke-linecap="round" stroke-linejoin="round" opacity="1" /><path d="M30 353Q86 329 118 350M161 347Q207 317 249 349" fill="none" stroke="#997643" stroke-width="1" stroke-linecap="round" stroke-linejoin="round" opacity="0.65" /><path d="M39 365V198L82 158L140 180L198 158L241 198V365" fill="none" stroke="#997643" stroke-width="1.2" stroke-linecap="round" stroke-linejoin="round" opacity="0.56" /><path d="M52 365V208L87 174L140 195L193 174L228 208V365" fill="none" stroke="#a65942" stroke-width="1.1" stroke-linecap="round" stroke-linejoin="round" opacity="0.44" /><path d="M40 365H240" fill="none" stroke="#232b2d" stroke-width="1.3" stroke-linecap="round" stroke-linejoin="round" opacity="1" /><path d="M60 365V250Q140 202 220 250V365" fill="#e6d4c1" stroke="#997643" stroke-width="1.5" stroke-linecap="round" stroke-linejoin="round" opacity="1" /><g transform="translate(137 347) scale(1.33 1.33)"><circle cx="0" cy="-64" r="8.3" fill="#f2ebd9" stroke="#232b2d" stroke-width="1.5" opacity="1"/><path d="M-9 -66Q-8 -79 1 -78Q12 -77 10 -64Q6 -70 0 -69Q-6 -68 -9 -66Z" fill="#232b2d" stroke="none" stroke-width="1.4" stroke-linecap="round" stroke-linejoin="round" opacity="1" /><path d="M-9 -55Q0 -61 10 -55L19 -19L8 -8L-17 -10L-22 -30Z" fill="#a65942" stroke="#232b2d" stroke-width="1.5" stroke-linecap="round" stroke-linejoin="round" opacity="1" /><path d="M-18 -13Q5 -20 20 -6L34 -4M-17 -12L-29 0" fill="none" stroke="#232b2d" stroke-width="5" stroke-linecap="round" stroke-linejoin="round" opacity="1" /><path d="M-9 -50L-19 -25L-6 -18M8 -49L21 -31L28 -27" fill="none" stroke="#f2ebd9" stroke-width="3.5" stroke-linecap="round" stroke-linejoin="round" opacity="1" /></g><g transform="translate(205 284) rotate(0) scale(1.1)"><path d="M-3 29L-2 -32Q0 -38 3 -32L3 29Z" fill="#5d615d" stroke="#997643" stroke-width="1.5" stroke-linecap="round" stroke-linejoin="round" opacity="1" /><path d="M-2 -13Q-14 -27 -22 -24M3 3Q15 -12 21 -10M-1 13Q-10 2 -18 4" fill="none" stroke="#a65942" stroke-width="2" stroke-linecap="round" stroke-linejoin="round" opacity="1" /><path d="M-22 -24Q-16 -28 -14 -27M21 -10Q15 -17 15 -12M-18 4Q-13 0 -10 2" fill="#a65942" stroke="none" stroke-width="1.4" stroke-linecap="round" stroke-linejoin="round" opacity="1" /></g><g transform="translate(81 346) rotate(0) scale(0.85)"><path d="M-4 0Q-3 -36 -8 -56M2 -35Q17 -52 28 -52M-3 -49Q-18 -68 -30 -67" fill="none" stroke="#232b2d" stroke-width="5" stroke-linecap="round" stroke-linejoin="round" opacity="1" /><path d="M-33 -66Q-36 -88 -15 -91Q-6 -106 10 -93Q26 -99 34 -82Q41 -67 26 -57Q11 -48 -1 -58Q-17 -51 -33 -66Z" fill="#d7b6a3" stroke="#a65942" stroke-width="1.8" stroke-linecap="round" stroke-linejoin="round" opacity="1" /><path d="M-29 -75Q-9 -68 0 -79M4 -87Q20 -80 27 -70" fill="none" stroke="#997643" stroke-width="1.2" stroke-linecap="round" stroke-linejoin="round" opacity="1" /><path d="M-23 -80L-22.28 -76.72L-19 -76L-22.28 -75.28L-23 -72L-23.72 -75.28L-27 -76L-23.72 -76.72Z" fill="#997643" stroke="#f2ebd9" stroke-width="0.7" stroke-linecap="round" stroke-linejoin="round" opacity="1" /><path d="M5 -91L5.72 -87.72L9 -87L5.72 -86.28L5 -83L4.28 -86.28L1 -87L4.28 -87.72Z" fill="#997643" stroke="#f2ebd9" stroke-width="0.7" stroke-linecap="round" stroke-linejoin="round" opacity="1" /><path d="M24 -71L24.72 -67.72L28 -67L24.72 -66.28L24 -63L23.28 -66.28L20 -67L23.28 -67.72Z" fill="#997643" stroke="#f2ebd9" stroke-width="0.7" stroke-linecap="round" stroke-linejoin="round" opacity="1" /></g><path d="M85 311Q75 288 66 312" fill="#5d615d" stroke="#232b2d" stroke-width="1.1" stroke-linecap="round" stroke-linejoin="round" opacity="1" /><path d="M143 185L144.8 193.2L153 195L144.8 196.8L143 205L141.2 196.8L133 195L141.2 193.2Z" fill="#997643" stroke="#f2ebd9" stroke-width="0.7" stroke-linecap="round" stroke-linejoin="round" opacity="1" /></g></g>
<path d="M41 410H77M203 410H239" stroke="#997643" stroke-width=".75"/>
<circle cx="140" cy="410" r="3" fill="none" stroke="#997643" stroke-width="1"/>
<text class="title" x="140" y="442" font-family="Noto Serif" font-size="18" font-weight="600" fill="#232b2d" text-anchor="middle">Queen of Wands</text>
<text class="label" x="140" y="461" font-family="Noto Sans" font-size="8" font-weight="600" letter-spacing="1.5" fill="#232b2d" text-anchor="middle">RADIANCE</text>
</svg>
